<?xml version="1.0"?>
<svg xmlns="http://www.w3.org/2000/svg" xmlns:xlink="http://www.w3.org/1999/xlink" version="1.1" id="Capa_1" x="0px" y="0px" width="512px" height="512px" viewBox="0 0 572.562 572.562" style="enable-background:new 0 0 572.562 572.562;" xml:space="preserve" class=""><g><g>
	<g>
		<path d="M60.547,225.738c0,124.668,158.463,346.824,225.734,346.824c67.272,0,225.735-222.156,225.735-346.824    C512.016,101.07,410.953,0,286.286,0C161.617,0,60.547,101.065,60.547,225.738z M345.049,215.604    c34.664-34.664,78.484-47.042,97.875-27.65c19.393,19.393,7.014,63.211-27.65,97.875c-34.662,34.664-78.482,47.043-97.875,27.65    C298.008,294.086,310.387,250.267,345.049,215.604z M298.271,352.757c4.371,0,7.912,7.364,7.912,16.454    c0,9.087-3.541,16.455-7.912,16.455c-4.369,0-7.91-7.364-7.91-16.455C290.365,360.121,293.906,352.757,298.271,352.757z     M269.271,352.757c4.37,0,7.911,7.364,7.911,16.454c0,9.087-3.542,16.455-7.911,16.455s-7.911-7.364-7.911-16.455    C261.36,360.121,264.902,352.757,269.271,352.757z M222.495,215.604c34.664,34.664,47.042,78.482,27.65,97.875    s-63.211,7.014-97.875-27.65c-34.664-34.664-47.042-78.482-27.65-97.875C144.012,168.561,187.831,180.94,222.495,215.604z" data-original="#000000" class="active-path" data-old_color="#FDCB11" fill="#FCCF27"/>
	</g>
</g></g> </svg>
